<svg width="100" height="50" viewBox="0 0 100 50" fill="none" xmlns="http://www.w3.org/2000/svg">
<path fill-rule="evenodd" clip-rule="evenodd" d="M98 4H87V7H98V4ZM87 2H85V4V4.5H82H81.5V5V12.5H79V11V9H77H66H64V11V12.3202C62.5847 12.5303 61.5497 14.3531 60.7735 17.6531C60.0782 20.6092 59.1209 22.4954 57.9506 23.3291C57.5058 20.3312 54.1159 18 50 18C45.8638 18 42.4608 20.3542 42.0431 23.3735C40.8437 22.5635 39.8641 20.6629 39.1562 17.6532C38.3929 14.408 37.3793 12.5914 36 12.3321V11V9H34H23H21V11V14V16H23H34H36V14V13.3072C36.8077 13.6578 37.5813 15.1372 38.221 17.8568C38.9517 20.9636 39.9847 23.0302 41.3656 24.0401C39.9777 25.1282 38.9438 27.3686 38.2116 30.7524C37.5733 33.7021 36.7964 35.3207 36 35.7151V35V33H34H23H21V35V36.5H19.5V29V28.5H19H15V28V26H13H2H0V28V31V33H2H13H15V31V29.5H18.5V37V44.5H15V43V41H13H2H0V43V46V48H2H13H15V46V45.5H19H19.5V45V37.5H21V38V40H23H34H36V38V36.701C37.3855 36.4185 38.3894 34.457 39.1503 30.9405C39.8614 27.6544 40.8484 25.5754 42.0529 24.6935C42.5113 27.6806 45.8945 30 50 30C54.0839 30 57.453 27.705 57.9396 24.7408C59.1156 25.6483 60.0807 27.7117 60.7794 30.9405C61.5531 34.5162 62.5781 36.4841 64 36.7138V38V40H66H77H79V38V35V33H77H66H64V35V35.7467C63.1791 35.4148 62.3751 33.7888 61.7181 30.7524C60.9859 27.3686 59.952 25.1282 58.5641 24.0401C59.945 23.0301 60.978 20.9636 61.7087 17.8568C62.3669 15.0584 63.1669 13.5731 64 13.2795V14V16H66H77H79V14V13.5H81.5V21V21.5H82H85V22V24H87H98H100V22V19V17H98H87H85V19V20.5H82.5V13V5.5H85V7V9H87H98H100V7V4V2H98H87ZM66 11H77V14H66V11ZM56 24C56 24.8862 55.5257 25.841 54.4569 26.6426C53.3874 27.4447 51.8182 28 50 28C48.1818 28 46.6126 27.4447 45.5431 26.6426C44.4743 25.841 44 24.8862 44 24C44 23.1138 44.4743 22.159 45.5431 21.3574C46.6126 20.5553 48.1818 20 50 20C51.8182 20 53.3874 20.5553 54.4569 21.3574C55.5257 22.159 56 23.1138 56 24ZM77 35H66V38H77V35ZM23 11H34V14H23V11ZM34 35H23V38H34V35ZM2 28H13V31H2V28ZM13 43H2V46H13V43ZM87 19H98V22H87V19Z" fill="#6C727F"/>
</svg>
