<svg width="100" height="50" viewBox="0 0 100 50" fill="none" xmlns="http://www.w3.org/2000/svg">
<path d="M59.8378 24.547L59.45 23.6708C60.8621 23.0458 62.0036 20.9862 62.8006 17.4643C63.6809 13.5746 64.8942 11.6609 66.618 11.9289L66.4708 12.8757C65.4807 12.7218 64.5097 14.2533 63.7352 17.6758C62.8774 21.4662 61.6029 23.7658 59.8378 24.547Z" fill="#6C727F"/>
<path d="M39.2379 24.547L39.6257 23.6708C38.2136 23.0458 37.0721 20.9862 36.2751 17.4643C35.3948 13.5746 34.1815 11.6609 32.4577 11.9289L32.6049 12.8757C33.595 12.7218 34.566 14.2533 35.3405 17.6758C36.1983 21.4662 37.4728 23.7658 39.2379 24.547Z" fill="#6C727F"/>
<path d="M59.8593 23.6277L59.4438 24.4911C60.8583 25.1717 62.007 27.4247 62.8065 31.265C63.6857 35.4879 64.8895 37.5517 66.6319 37.2573L66.4723 36.3125C65.5009 36.4766 64.5203 34.7954 63.7446 31.0697C62.8893 26.9613 61.622 24.4758 59.8593 23.6277Z" fill="#6C727F"/>
<path d="M39.2164 23.6277L39.6318 24.4911C38.2174 25.1717 37.0686 27.4247 36.2691 31.265C35.39 35.4879 35.1862 37.5517 33.4438 37.2573L33.6034 36.3125C34.5748 36.4766 34.5554 34.7954 35.3311 31.0697C36.1864 26.9613 37.4537 24.4758 39.2164 23.6277Z" fill="#6C727F"/>
<path d="M81.3547 13L81 12.1009C82.5667 11.7285 83.8011 10.5321 84.676 8.45573C85.6846 6.06181 87.1081 4.85579 89 5.01375L88.8704 5.94863C87.7113 5.85185 86.6791 6.72627 85.8273 8.748C84.8417 11.0873 83.36 12.5233 81.3547 13Z" fill="#6C727F"/>
<path d="M81.3817 12L81 12.8286C82.5598 13.204 83.7996 15.4201 84.6766 17.527C85.6794 19.9359 87.0918 21.147 89 20.9858L88.8596 20.1183C87.7242 20.2143 86.6869 19.3248 85.8338 17.2753C84.8549 14.9238 83.3852 12.4821 81.3817 12Z" fill="#6C727F"/>
<path d="M18.1065 38.0524L18.436 37.1362C16.9808 36.7566 15.8342 35.5374 15.0216 33.4215C14.0848 30.9819 12.7625 29.7529 11.0052 29.9139L11.1255 30.8666C12.2022 30.7679 13.161 31.659 13.9522 33.7193C14.8676 36.1032 16.2439 37.5666 18.1065 38.0524Z" fill="#6C727F"/>
<path d="M18.0936 37.1143L18.449 38.0235C16.9966 38.4352 15.8422 39.7695 15.0256 42.081C14.0919 44.724 12.7768 46.0527 11 45.8758L11.1307 44.9241C12.1879 45.0294 13.1538 44.0535 13.9481 41.805C14.8596 39.225 16.2281 37.6432 18.0936 37.1143Z" fill="#6C727F"/>
<path fill-rule="evenodd" clip-rule="evenodd" d="M49.5 16L52.0334 19.1476L57.0791 18.2062L55.8302 21.9166L60.5 24L55.8302 26.0834L57.0791 29.7938L52.0334 28.8524L49.5 32L46.9666 28.8524L41.9209 29.7938L43.1698 26.0834L38.5 24L43.1698 21.9166L41.9209 18.2062L46.9666 19.1476L49.5 16ZM49.5 18.6695L47.6482 20.9703L44.4183 20.3677L45.2432 22.8185L42.5949 24L45.2432 25.1815L44.4183 27.6323L47.6482 27.0297L49.5 29.3305L51.3518 27.0297L54.5817 27.6323L53.7568 25.1815L56.4051 24L53.7568 22.8185L54.5817 20.3677L51.3518 20.9703L49.5 18.6695Z" fill="#6C727F"/>
<path fill-rule="evenodd" clip-rule="evenodd" d="M71.7667 34.6089C71.0582 34.6688 70.4538 34.998 70.1994 35.5747L69.9326 36.1796L69.2203 36.0676C68.3698 35.9339 67.9758 36.1811 67.8517 36.3171C67.7989 36.3749 67.7835 36.4195 67.7792 36.4413L68.5992 37.0476L67.814 37.6281C67.8135 37.6376 67.8135 37.6499 67.8145 37.6654C67.8208 37.7648 67.8712 37.9051 67.9755 38.029C68.0754 38.1478 68.1951 38.2179 68.3167 38.2433C68.4277 38.2664 68.6292 38.2713 68.9438 38.1151L70.2621 37.4605L70.2621 38.8156C70.2621 38.8622 70.2757 38.9512 70.4817 39.0778C70.7007 39.2123 71.0543 39.3272 71.4877 39.3758C71.9151 39.4237 72.3479 39.3988 72.6914 39.3135C73.0537 39.2234 73.1964 39.0994 73.2346 39.0429L73.8898 38.074L74.684 38.9547C74.7935 39.0761 74.9979 39.1944 75.331 39.2617C75.6611 39.3284 76.0591 39.3315 76.4562 39.2687C76.8551 39.2056 77.203 39.0841 77.4435 38.9422C77.6951 38.7938 77.7378 38.682 77.7422 38.6615L77.914 37.8739L78.7885 38.031C79.5218 38.1628 79.8505 37.9709 79.9599 37.8621C80.0746 37.748 80.104 37.5894 80.0071 37.4283L79.6785 36.8817L80.1856 36.46C80.2049 36.4439 80.2156 36.4321 80.221 36.4251C80.2139 36.3934 80.1724 36.2968 80.0271 36.1801C79.7035 35.9201 79.2838 35.8666 79.0283 35.9876L78.0874 36.433L77.7669 35.5207C77.6625 35.2233 77.2032 34.9068 76.3258 34.8352C75.9285 34.8028 75.5327 34.8337 75.2125 34.9106C74.8703 34.9928 74.72 35.1005 74.6841 35.1404L73.8899 36.0211L73.2346 35.0522C73.0699 34.8087 72.5281 34.5445 71.7667 34.6089ZM80.226 36.4175C80.2261 36.4175 80.2259 36.418 80.2254 36.4189ZM74.1008 33.5813C73.3942 33.1086 72.4381 32.945 71.6004 33.0158C70.5949 33.1008 69.5158 33.5363 68.8649 34.4312C67.8381 34.4087 66.9942 34.7359 66.478 35.3013C66.038 35.7833 65.8498 36.4839 66.1371 37.0814C66.0506 37.3101 66.0262 37.546 66.0396 37.7566C66.0672 38.1928 66.2546 38.634 66.558 38.9948C66.8659 39.3608 67.3237 39.6787 67.9156 39.8021C68.2124 39.864 68.5202 39.8722 68.8323 39.8268C69.0086 40.0592 69.2366 40.2502 69.4793 40.3993C69.9993 40.7188 70.648 40.8941 71.2679 40.9636C71.8937 41.0338 72.5651 41.0048 73.1644 40.8559C73.4547 40.7838 73.7596 40.6751 74.0381 40.5161C74.3264 40.6628 74.6364 40.7612 74.9415 40.8229C75.5372 40.9433 76.1755 40.9377 76.7637 40.8447C77.3501 40.752 77.9365 40.5645 78.418 40.2806C78.6792 40.1265 78.9394 39.9251 79.1417 39.6732C80.0168 39.695 80.7713 39.4398 81.2781 38.9357C81.7697 38.4468 81.9437 37.7968 81.7874 37.1827C81.9764 36.8696 82.0395 36.5203 81.9763 36.1709C81.888 35.6825 81.5708 35.2754 81.2109 34.9863C80.6918 34.5693 79.8857 34.2528 79.0515 34.336C78.4168 33.608 77.3438 33.3116 76.4864 33.2416C75.8984 33.1936 75.2919 33.2355 74.7543 33.3646C74.5389 33.4163 74.3153 33.4867 74.1008 33.5813Z" fill="#6C727F"/>
<path fill-rule="evenodd" clip-rule="evenodd" d="M23.7667 34.6089C23.0582 34.6688 22.4538 34.998 22.1994 35.5747L21.9326 36.1796L21.2203 36.0676C20.3698 35.9339 19.9758 36.1811 19.8517 36.3171C19.7989 36.3749 19.7835 36.4195 19.7792 36.4413L20.5992 37.0476L19.814 37.6281C19.8135 37.6376 19.8135 37.6499 19.8145 37.6654C19.8208 37.7648 19.8712 37.9051 19.9755 38.029C20.0754 38.1478 20.1951 38.2179 20.3167 38.2433C20.4277 38.2664 20.6292 38.2713 20.9438 38.1151L22.2621 37.4605L22.2621 38.8156C22.2621 38.8622 22.2757 38.9512 22.4817 39.0778C22.7007 39.2123 23.0543 39.3272 23.4877 39.3758C23.9151 39.4237 24.3479 39.3988 24.6914 39.3135C25.0537 39.2234 25.1964 39.0994 25.2346 39.0429L25.8898 38.074L26.684 38.9547C26.7935 39.0761 26.9979 39.1944 27.331 39.2617C27.6611 39.3284 28.0591 39.3315 28.4562 39.2687C28.8551 39.2056 29.203 39.0841 29.4435 38.9422C29.6951 38.7938 29.7378 38.682 29.7422 38.6615L29.914 37.8739L30.7885 38.031C31.5218 38.1628 31.8505 37.9709 31.9599 37.8621C32.0746 37.748 32.104 37.5894 32.0071 37.4283L31.6785 36.8817L32.1856 36.46C32.2049 36.4439 32.2156 36.4321 32.221 36.4251C32.2139 36.3934 32.1724 36.2968 32.0271 36.1801C31.7035 35.9201 31.2838 35.8666 31.0283 35.9876L30.0874 36.433L29.7669 35.5207C29.6625 35.2233 29.2032 34.9068 28.3258 34.8352C27.9285 34.8028 27.5327 34.8337 27.2125 34.9106C26.8703 34.9928 26.72 35.1005 26.6841 35.1404L25.8899 36.0211L25.2346 35.0522C25.0699 34.8087 24.5281 34.5445 23.7667 34.6089ZM32.226 36.4175C32.2261 36.4175 32.2259 36.418 32.2254 36.4189ZM19.8183 37.6009C19.8185 37.6011 19.818 37.6032 19.8164 37.6068C19.8173 37.6026 19.8181 37.6008 19.8183 37.6009ZM26.1008 33.5813C25.3942 33.1086 24.4381 32.945 23.6004 33.0158C22.5949 33.1008 21.5158 33.5363 20.8649 34.4312C19.8381 34.4087 18.9942 34.7359 18.478 35.3013C18.038 35.7833 17.8498 36.4839 18.1371 37.0814C18.0506 37.3101 18.0262 37.546 18.0396 37.7566C18.0672 38.1928 18.2546 38.634 18.558 38.9948C18.8659 39.3608 19.3237 39.6787 19.9156 39.8021C20.2124 39.864 20.5202 39.8722 20.8323 39.8268C21.0086 40.0592 21.2366 40.2502 21.4793 40.3993C21.9993 40.7188 22.648 40.8941 23.2679 40.9636C23.8937 41.0338 24.5651 41.0048 25.1644 40.8559C25.4547 40.7838 25.7596 40.6751 26.0381 40.5161C26.3264 40.6628 26.6364 40.7612 26.9415 40.8229C27.5372 40.9433 28.1755 40.9377 28.7637 40.8447C29.3501 40.752 29.9365 40.5645 30.418 40.2806C30.6792 40.1265 30.9394 39.9251 31.1417 39.6732C32.0168 39.695 32.7713 39.4398 33.2781 38.9357C33.7697 38.4468 33.9437 37.7968 33.7874 37.1827C33.9764 36.8696 34.0395 36.5203 33.9763 36.1709C33.888 35.6825 33.5708 35.2754 33.2109 34.9863C32.6918 34.5693 31.8857 34.2528 31.0515 34.336C30.4168 33.608 29.3438 33.3116 28.4864 33.2416C27.8984 33.1936 27.2919 33.2355 26.7543 33.3646C26.5389 33.4163 26.3153 33.4867 26.1008 33.5813Z" fill="#6C727F"/>
<path fill-rule="evenodd" clip-rule="evenodd" d="M23.7667 10.6089C23.0582 10.6688 22.4538 10.998 22.1994 11.5747L21.9326 12.1796L21.2203 12.0676C20.3698 11.9339 19.9758 12.1811 19.8517 12.3171C19.7989 12.3749 19.7835 12.4195 19.7792 12.4413L20.5992 13.0476L19.814 13.6281C19.8135 13.6376 19.8135 13.6499 19.8145 13.6654C19.8208 13.7648 19.8712 13.9051 19.9755 14.029C20.0754 14.1478 20.1951 14.2179 20.3167 14.2433C20.4277 14.2664 20.6292 14.2713 20.9438 14.1151L22.2621 13.4605L22.2621 14.8156C22.2621 14.8622 22.2757 14.9512 22.4817 15.0778C22.7007 15.2123 23.0543 15.3272 23.4877 15.3758C23.9151 15.4237 24.3479 15.3988 24.6914 15.3135C25.0537 15.2234 25.1964 15.0994 25.2346 15.0429L25.8898 14.074L26.684 14.9547C26.7935 15.0761 26.9979 15.1944 27.331 15.2617C27.6611 15.3284 28.0591 15.3315 28.4562 15.2687C28.8551 15.2056 29.203 15.0841 29.4435 14.9422C29.6951 14.7938 29.7378 14.682 29.7422 14.6615L29.914 13.8739L30.7885 14.031C31.5218 14.1628 31.8505 13.9709 31.9599 13.8621C32.0746 13.748 32.104 13.5894 32.0071 13.4283L31.6785 12.8817L32.1856 12.46C32.2049 12.4439 32.2156 12.4321 32.221 12.4251C32.2139 12.3934 32.1724 12.2968 32.0271 12.1801C31.7035 11.9201 31.2838 11.8666 31.0283 11.9876L30.0874 12.433L29.7669 11.5207C29.6625 11.2233 29.2032 10.9068 28.3258 10.8352C27.9285 10.8028 27.5327 10.8337 27.2125 10.9106C26.8703 10.9928 26.72 11.1005 26.6841 11.1404L25.8899 12.0211L25.2346 11.0522C25.0699 10.8087 24.5281 10.5445 23.7667 10.6089ZM32.226 12.4175C32.2261 12.4175 32.2259 12.418 32.2254 12.4189ZM19.8183 13.6009C19.8185 13.6011 19.818 13.6032 19.8164 13.6068C19.8173 13.6026 19.8181 13.6008 19.8183 13.6009ZM26.1008 9.58129C25.3942 9.10864 24.4381 8.94498 23.6004 9.01579C22.5949 9.10078 21.5158 9.53626 20.8649 10.4312C19.8381 10.4087 18.9942 10.7359 18.478 11.3013C18.038 11.7833 17.8498 12.4839 18.1371 13.0814C18.0506 13.3101 18.0262 13.546 18.0396 13.7566C18.0672 14.1928 18.2546 14.634 18.558 14.9948C18.8659 15.3608 19.3237 15.6787 19.9156 15.8021C20.2124 15.864 20.5202 15.8722 20.8323 15.8268C21.0086 16.0592 21.2366 16.2502 21.4793 16.3993C21.9993 16.7188 22.648 16.8941 23.2679 16.9636C23.8937 17.0338 24.5651 17.0048 25.1644 16.8559C25.4547 16.7838 25.7596 16.6751 26.0381 16.5161C26.3264 16.6628 26.6364 16.7612 26.9415 16.8229C27.5372 16.9433 28.1755 16.9377 28.7637 16.8447C29.3501 16.752 29.9365 16.5645 30.418 16.2806C30.6792 16.1265 30.9394 15.9251 31.1417 15.6732C32.0168 15.695 32.7713 15.4398 33.2781 14.9357C33.7697 14.4468 33.9437 13.7968 33.7874 13.1827C33.9764 12.8696 34.0395 12.5203 33.9763 12.1709C33.888 11.6825 33.5708 11.2754 33.2109 10.9863C32.6918 10.5693 31.8857 10.2528 31.0515 10.336C30.4168 9.60804 29.3438 9.3116 28.4864 9.24162C27.8984 9.19363 27.2919 9.23548 26.7543 9.36457C26.5389 9.41627 26.3153 9.48673 26.1008 9.58129Z" fill="#6C727F"/>
<path fill-rule="evenodd" clip-rule="evenodd" d="M71.7667 9.60888C71.0582 9.66877 70.4538 9.99796 70.1994 10.5747L69.9326 11.1796L69.2203 11.0676C68.3698 10.9339 67.9758 11.1811 67.8517 11.3171C67.7989 11.3749 67.7835 11.4195 67.7792 11.4413L68.5992 12.0476L67.814 12.6281C67.8135 12.6376 67.8135 12.6499 67.8145 12.6654C67.8208 12.7648 67.8712 12.9051 67.9755 13.029C68.0754 13.1478 68.1951 13.2179 68.3167 13.2433C68.4277 13.2664 68.6292 13.2713 68.9438 13.1151L70.2621 12.4605L70.2621 13.8156C70.2621 13.8622 70.2757 13.9512 70.4817 14.0778C70.7007 14.2123 71.0543 14.3272 71.4877 14.3758C71.9151 14.4237 72.3479 14.3988 72.6914 14.3135C73.0537 14.2234 73.1964 14.0994 73.2346 14.0429L73.8898 13.074L74.684 13.9547C74.7935 14.0761 74.9979 14.1944 75.331 14.2617C75.6611 14.3284 76.0591 14.3315 76.4562 14.2687C76.8551 14.2056 77.203 14.0841 77.4435 13.9422C77.6951 13.7938 77.7378 13.682 77.7422 13.6615L77.914 12.8739L78.7885 13.031C79.5218 13.1628 79.8505 12.9709 79.9599 12.8621C80.0746 12.748 80.104 12.5894 80.0071 12.4283L79.6785 11.8817L80.1856 11.46C80.2049 11.4439 80.2156 11.4321 80.221 11.4251C80.2139 11.3934 80.1724 11.2968 80.0271 11.1801C79.7035 10.9201 79.2838 10.8666 79.0283 10.9876L78.0874 11.433L77.7669 10.5207C77.6625 10.2233 77.2032 9.90679 76.3258 9.83518C75.9285 9.80276 75.5327 9.83374 75.2125 9.91061C74.8703 9.99277 74.72 10.1005 74.6841 10.1404L73.8899 11.0211L73.2346 10.0522C73.0699 9.8087 72.5281 9.54452 71.7667 9.60888ZM80.226 11.4175C80.2261 11.4175 80.2259 11.418 80.2254 11.4189ZM67.8183 12.6009C67.8185 12.6011 67.818 12.6032 67.8164 12.6068C67.8173 12.6026 67.8181 12.6008 67.8183 12.6009ZM74.1008 8.58129C73.3942 8.10864 72.4381 7.94498 71.6004 8.01579C70.5949 8.10078 69.5158 8.53626 68.8649 9.43123C67.8381 9.4087 66.9942 9.7359 66.478 10.3013C66.038 10.7833 65.8498 11.4839 66.1371 12.0814C66.0506 12.3101 66.0262 12.546 66.0396 12.7566C66.0672 13.1928 66.2546 13.634 66.558 13.9948C66.8659 14.3608 67.3237 14.6787 67.9156 14.8021C68.2124 14.864 68.5202 14.8722 68.8323 14.8268C69.0086 15.0592 69.2366 15.2502 69.4793 15.3993C69.9993 15.7188 70.648 15.8941 71.2679 15.9636C71.8937 16.0338 72.5651 16.0048 73.1644 15.8559C73.4547 15.7838 73.7596 15.6751 74.0381 15.5161C74.3264 15.6628 74.6364 15.7612 74.9415 15.8229C75.5372 15.9433 76.1755 15.9377 76.7637 15.8447C77.3501 15.752 77.9365 15.5645 78.418 15.2806C78.6792 15.1265 78.9394 14.9251 79.1417 14.6732C80.0168 14.695 80.7713 14.4398 81.2781 13.9357C81.7697 13.4468 81.9437 12.7968 81.7874 12.1827C81.9764 11.8696 82.0395 11.5203 81.9763 11.1709C81.888 10.6825 81.5708 10.2754 81.2109 9.9863C80.6918 9.56929 79.8857 9.25276 79.0515 9.33598C78.4168 8.60804 77.3438 8.3116 76.4864 8.24162C75.8984 8.19363 75.2919 8.23548 74.7543 8.36457C74.5389 8.41627 74.3153 8.48673 74.1008 8.58129Z" fill="#6C727F"/>
<rect width="12" height="3" rx="1" transform="matrix(-1 0 0 1 100 4)" fill="#6C727F"/>
<rect width="12" height="3" rx="1" transform="matrix(-1 0 0 1 100 19)" fill="#6C727F"/>
<rect width="12" height="3" rx="1" transform="matrix(-1 0 0 1 12 29)" fill="#6C727F"/>
<rect width="12" height="3" rx="1" transform="matrix(-1 0 0 1 12 44)" fill="#6C727F"/>
</svg>
