<svg width="100" height="50" viewBox="0 0 100 50" fill="none" xmlns="http://www.w3.org/2000/svg">
<path fill-rule="evenodd" clip-rule="evenodd" d="M87 4H98V7H87V4ZM85 2H87H98H100V4V7V9H98H87H85V7V5.5H82.5V13V20.5H85V19V17H87H98H100V19V22V24H98H87H85V22V21.5H82H81.5V21V13.5H79V14V16H77H66H64V14V12.5H60.5V24V36H64V35V33H66H77H79V35V38V40H77H66H64V38V37H60H59.5V36.5V24.5H57V29V31H55H45H43V29V24.5H40.5V36.5V37H40H36V38V40H34H23H21V38V37.5H19.5V45V45.5H19H15V46V48H13H2H0V46V43V41H2H13H15V43V44.5H18.5V37V29.5H15V31V33H13H2H0V31V28V26H2H13H15V28V28.5H19H19.5V29V36.5H21V35V33H23H34H36V35V36H39.5V24V12.5H36V14V16H34H23H21V14V11V9H23H34H36V11V11.5H40H40.5V12V23.5H43V21V19H45H55H57V21V23.5H59.5V12V11.5H60H64V11V9H66H77H79V11V12.5H81.5V5V4.5H82H85V4V2ZM77 11H66V14H77V11ZM77 35H66V38H77V35ZM34 11H23V14H34V11ZM23 35H34V38H23V35ZM13 28H2V31H13V28ZM2 43H13V46H2V43ZM98 19H87V22H98V19ZM45 21H55V29H45V21Z" fill="#6C727F"/>
</svg>
