<svg width="100" height="50" viewBox="0 0 100 50" fill="none" xmlns="http://www.w3.org/2000/svg">
<path fill-rule="evenodd" clip-rule="evenodd" d="M88 5C88 4.44772 88.4477 4 89 4H99C99.5523 4 100 4.44772 100 5V6C100 6.55228 99.5523 7 99 7H89C88.4477 7 88 6.55228 88 6V5.93669C87.191 6.20669 86.4595 6.96664 85.8273 8.2795C85.0028 9.99185 83.8311 11.1511 82.2961 11.7284C83.6893 12.4818 84.7502 13.9556 85.501 16.1189C86.2149 18.1758 87.0673 19.1865 88 19.2925V19C88 18.4477 88.4477 18 89 18H99C99.5523 18 100 18.4477 100 19V20C100 20.5523 99.5523 21 99 21H89C88.5438 21 88.159 20.6945 88.0389 20.277C86.4681 20.2221 85.2838 18.8789 84.4235 16.3999C83.7694 14.5152 82.8986 13.2687 81.8315 12.6318V15.0418C81.8315 15.571 81.4025 16 80.8733 16H67.4584C66.9292 16 66.5002 15.571 66.5002 15.0418V12.6879L66.471 12.8757C65.4809 12.7218 64.51 14.2533 63.7354 17.6758C63.0052 20.9026 61.9729 23.049 60.593 24.0979C61.98 25.2281 63.0132 27.5551 63.7449 31.0697C64.3947 34.1911 65.1884 35.8774 66 36.2458V33.9582C66 33.429 66.429 33 66.9582 33H80.373C80.9022 33 81.3312 33.429 81.3312 33.9582V39.7074C81.3312 40.2366 80.9022 40.6656 80.373 40.6656H66.9582C66.429 40.6656 66 40.2366 66 39.7074V37.2569C64.5921 36.9985 63.5754 34.9569 62.8068 31.265C62.2216 28.4543 61.4494 26.4938 60.5229 25.3779C60.4849 25.9873 60.2795 26.5806 59.9069 27.0748C59.2837 27.9012 58.2661 28.3612 57.0049 28.2484C56.7745 28.7413 56.4104 29.1565 55.9913 29.4861C55.3803 29.9665 54.6134 30.2991 53.8251 30.4653C52.5884 30.7259 51.098 30.6028 50.0393 29.7563C49.6614 30.0976 49.2026 30.3388 48.7284 30.4958C47.9398 30.757 47.0432 30.8109 46.2018 30.6851C45.3631 30.5597 44.5216 30.2468 43.8726 29.7151C43.4745 29.3889 43.1482 28.9778 42.9506 28.4885C42.462 28.6341 41.9813 28.6421 41.5253 28.5154C40.7953 28.3124 40.2526 27.7985 39.8974 27.2353C39.5417 26.6714 39.3348 26.0008 39.3048 25.3691C39.3039 25.3513 39.3032 25.3333 39.3027 25.3153C38.0459 26.3228 37.012 28.491 36.2575 31.829C35.5208 35.0883 34.5792 37.093 33.3312 37.7558V39.7074C33.3312 40.2366 32.9022 40.6656 32.373 40.6656H18.9582C18.429 40.6656 18 40.2366 18 39.7074V37.7385C17.0095 38.403 16.1958 39.6154 15.5765 41.3999C14.7162 43.8789 13.5319 45.2221 11.9611 45.277C11.841 45.6945 11.4562 46 11 46H1C0.447716 46 0 45.5523 0 45V44C0 43.4477 0.447716 43 1 43H11C11.5523 43 12 43.4477 12 44V44.2925C12.9327 44.1865 13.7851 43.1758 14.499 41.1189C15.2498 38.9556 16.3106 37.4818 17.7039 36.7284C16.1689 36.1511 14.9972 34.9919 14.1727 33.2795C13.5405 31.9666 12.809 31.2067 12 30.9367V31C12 31.5523 11.5523 32 11 32H1C0.447716 32 0 31.5523 0 31V30C0 29.4477 0.447716 29 1 29H11C11.5523 29 12 29.4477 12 30V30.0565C13.4032 30.2988 14.5016 31.3157 15.324 33.0238C16.0034 34.4347 16.8997 35.3812 18 35.8864V33.9582C18 33.429 18.429 33 18.9582 33H32.373C32.9022 33 33.3312 33.429 33.3312 33.9582V36.4479C34.0106 35.6698 34.659 34.0815 35.2134 31.6288C36.0902 27.7498 37.356 25.282 39.0833 24.2372C37.6743 23.2048 36.6232 21.0437 35.8828 17.7717C35.1563 14.5616 34.257 13.015 33.3312 12.9624V15.7074C33.3312 16.2366 32.9022 16.6656 32.373 16.6656H18.9582C18.429 16.6656 18 16.2366 18 15.7074V9.9582C18 9.429 18.429 9 18.9582 9H32.373C32.9022 9 33.3312 9.429 33.3312 9.9582V12.0001C34.8808 12.0152 35.9946 13.9246 36.8173 17.5602C37.4344 20.2867 38.2579 22.1368 39.2535 23.1234C39.2219 22.5026 39.4152 21.8617 39.7695 21.3442C40.3979 20.4266 41.5327 19.8247 43.0156 19.9476C43.7787 18.3062 45.2117 17.4418 46.6587 17.2787C47.9076 17.138 49.23 17.5227 50.0949 18.4297C50.4169 18.2067 50.7817 18.0388 51.1544 17.9195C51.8642 17.6923 52.675 17.6163 53.4649 17.7022C54.7797 17.8453 56.2033 18.4723 56.9076 19.7955C58.0386 19.5345 59.1675 20.0946 59.8563 20.8323C60.2917 21.2986 60.6404 21.9369 60.7303 22.6165C61.5632 21.5641 62.261 19.8496 62.8008 17.4643C63.6609 13.664 64.8389 11.7499 66.5002 11.9139V9.29259C66.5002 8.76339 66.9292 8.33439 67.4584 8.33439H80.8733C81.4025 8.33439 81.8315 8.76339 81.8315 9.29259V10.9597C83.0091 10.4758 83.9622 9.50605 84.676 8.02377C85.4984 6.31569 86.5968 5.29876 88 5.0565V5ZM67.9164 38.7492V34.9164H79.4148V38.7492H67.9164ZM19.9164 34.9164V38.7492H31.4148V34.9164H19.9164ZM19.9164 14.7492V10.9164H31.4148V14.7492H19.9164ZM68.4166 10.2508V14.0836H79.9151V10.2508H68.4166ZM44.2059 21.0103C44.6822 19.5705 45.7632 18.8891 46.8267 18.7693C47.9336 18.6445 48.9243 19.1225 49.3227 19.9079L49.899 21.0442L50.6128 19.9888C50.7736 19.7511 51.1049 19.5103 51.6117 19.3481C52.1083 19.1892 52.7069 19.1286 53.3026 19.1934C54.5208 19.326 55.4918 19.9329 55.764 20.9658L56.0246 21.9549L56.8895 21.409C57.4256 21.0707 58.1827 21.2378 58.7599 21.856C59.3354 22.4723 59.3873 23.1468 58.99 23.5874L58.6618 23.9513L58.8633 24.3979C59.1409 25.0137 59.0584 25.7087 58.7093 26.1716C58.3914 26.5931 57.7598 26.9377 56.664 26.6752L55.8793 26.4872L55.7491 27.2834C55.6919 27.6329 55.4689 27.9886 55.0641 28.307C54.6598 28.6249 54.1129 28.8716 53.5157 28.9975C52.2734 29.2594 51.1323 28.9585 50.6128 28.1905L49.899 27.1352L49.3227 28.2714C49.1524 28.607 48.7969 28.893 48.2567 29.0719C47.7194 29.2499 47.0633 29.2972 46.4236 29.2016C45.7812 29.1055 45.2133 28.8744 44.8232 28.5548C44.4483 28.2476 44.2439 27.8699 44.2439 27.4045L44.2439 26.0086L43.0799 26.7792C42.5533 27.1277 42.1782 27.14 41.927 27.0701C41.6537 26.9942 41.3841 26.7806 41.166 26.435C40.9484 26.09 40.8208 25.6705 40.8031 25.2978C40.7844 24.9056 40.8884 24.697 40.9626 24.6238L41.5045 24.0897L40.9627 23.5555C40.7199 23.3162 40.6238 22.7517 41.0072 22.1917C41.3435 21.7006 42.0751 21.2436 43.34 21.5088L43.9956 21.6462L44.2059 21.0103Z" fill="#6C727F"/>
</svg>
