<svg width="46" height="46" viewBox="0 0 46 46" fill="none" xmlns="http://www.w3.org/2000/svg">
<path d="M36.3333 3H9.66669C5.98478 3 3 5.98478 3 9.66669V36.3333C3 40.0152 5.98478 43 9.66669 43H36.3333C40.0152 43 43 40.0152 43 36.3333V9.66669C43 5.98478 40.0152 3 36.3333 3Z" fill="url(#paint0_linear_289_18)" fill-opacity="0.2"/>
<rect x="1" y="1" width="44" height="44" rx="6.6" fill="url(#paint1_linear_289_18)"/>
<rect x="0.5" y="0.5" width="45" height="45" rx="7.1" stroke="white" stroke-opacity="0.4"/>
<path fill-rule="evenodd" clip-rule="evenodd" d="M17.6965 11.035L28.4129 11.035C28.8902 11.035 29.2772 11.4219 29.2772 11.8992L29.2772 17.9488C29.2772 18.4261 28.8902 18.8131 28.4129 18.8131L17.6965 18.8131C17.2192 18.8131 16.8323 18.4261 16.8323 17.9488L16.8323 11.8992C16.8323 11.4219 17.2192 11.035 17.6965 11.035Z" stroke="#133B84" stroke-width="1.5"/>
<path fill-rule="evenodd" clip-rule="evenodd" d="M7.8254 29.7801L18.5418 29.7801C19.0191 29.7801 19.4061 30.1671 19.4061 30.6444L19.4061 34.1013C19.4061 34.5786 19.0191 34.9655 18.5418 34.9655L7.8254 34.9655C7.3481 34.9655 6.96117 34.5786 6.96117 34.1013L6.96117 30.6444C6.96117 30.1671 7.3481 29.7801 7.8254 29.7801Z" stroke="#133B84" stroke-width="1.5"/>
<path fill-rule="evenodd" clip-rule="evenodd" d="M27.4563 29.7801L38.1727 29.7801C38.65 29.7801 39.0369 30.1671 39.0369 30.6444L39.0369 34.1013C39.0369 34.5786 38.65 34.9655 38.1727 34.9655L27.4563 34.9655C26.979 34.9655 26.592 34.5786 26.592 34.1013L26.592 30.6444C26.592 30.1671 26.979 29.7801 27.4563 29.7801Z" stroke="#133B84" stroke-width="1.5"/>
<path d="M23.123 18.7842V24.1729" stroke="#133B84" stroke-width="1.5"/>
<path d="M32.8938 30.3582V25.9013C32.8938 24.9467 32.1199 24.1729 31.1653 24.1729H14.8339C13.8793 24.1729 13.1055 24.9467 13.1055 25.9013V30.3582" stroke="#133B84" stroke-width="1.5"/>
<defs>
<linearGradient id="paint0_linear_289_18" x1="43" y1="6.32943" x2="3" y2="39.6706" gradientUnits="userSpaceOnUse">
<stop stop-color="#2F77FB"/>
<stop offset="1" stop-color="#A6C5FF"/>
</linearGradient>
<linearGradient id="paint1_linear_289_18" x1="6.37769" y1="1" x2="39.6223" y2="45" gradientUnits="userSpaceOnUse">
<stop stop-color="#ECF3FF"/>
<stop offset="1" stop-color="#76A7FF"/>
</linearGradient>
</defs>
</svg>
