<svg width="20" height="20" viewBox="0 0 20 20" fill="none" xmlns="http://www.w3.org/2000/svg">
<g clip-path="url(#clip0_289_40)">
<path d="M6.20884 3.2207H1.66846V7.76109H6.20884V3.2207Z" fill="#3543A8"/>
<path d="M16.4785 0.833896L13.4849 4.35742L17.0084 7.3511L20.0021 3.82757L16.4785 0.833896Z" fill="#FF8600"/>
<path d="M11.6058 3.2207H7.06543V7.76109H11.6058V3.2207Z" fill="#3543A8"/>
<path d="M6.20884 8.61914H1.66846V13.1595H6.20884V8.61914Z" fill="#3543A8"/>
<path d="M11.6058 8.61914H7.06543V13.1595H11.6058V8.61914Z" fill="#3543A8"/>
<path d="M17.0074 8.61914H12.467V13.1595H17.0074V8.61914Z" fill="#FF8600"/>
<path d="M6.20884 14.0449H1.66846V18.5853H6.20884V14.0449Z" fill="#3543A8"/>
<path d="M11.6058 14.0449H7.06543V18.5853H11.6058V14.0449Z" fill="#3543A8"/>
<path d="M17.034 14.0449H12.4937V18.5853H17.034V14.0449Z" fill="#3543A8"/>
</g>
<defs>
<clipPath id="clip0_289_40">
<rect width="20" height="20" fill="white"/>
</clipPath>
</defs>
</svg>
